<svg id="Layer_1" data-name="Layer 1" xmlns="http://www.w3.org/2000/svg" viewBox="0 0 67 67"><defs><style>.cls-1{fill:#eb0000;}.cls-2{fill:#fff;}</style></defs><title>cityonlive1</title><rect class="cls-1" width="67" height="67"/><path class="cls-2" d="M11.77,39.84a4.25,4.25,0,0,1-1.63.26c-2.75,0-4.07-2.27-4.07-5.33,0-4.07,2.26-5.65,4.35-5.65a2.88,2.88,0,0,1,1.46.29l-.35,1.76a2.11,2.11,0,0,0-1-.21c-1.18,0-2.26,1-2.26,3.7s1,3.59,2.26,3.59a3.69,3.69,0,0,0,1-.16Z"/><path class="cls-2" d="M15,29.21V40h-2.1V29.21Z"/><path class="cls-2" d="M18.05,31.15h-1.9V29.21h5.92v1.94H20.15V40h-2.1Z"/><path class="cls-2" d="M24.92,40V35.87l-2.37-6.66h2.24l.74,2.58c.19.69.4,1.49.56,2.29h0c.13-.78.3-1.57.5-2.34l.64-2.53h2.18L27,35.79V40Z"/><path class="cls-2" d="M13,53.61c0,4.07-1.44,5.71-3.49,5.71-2.45,0-3.41-2.59-3.41-5.55s1.17-5.49,3.55-5.49C12.23,48.28,13,51.15,13,53.61Zm-4.72.19c0,2.45.46,3.7,1.31,3.7s1.22-1.6,1.22-3.79c0-1.89-.29-3.6-1.23-3.6S8.24,51.48,8.24,53.81Z"/><path class="cls-2" d="M14.29,59.2V48.41h1.92l1.66,4.23c.32.83.85,2.22,1.15,3.15h0c-.06-1.14-.21-3-.21-5V48.41h1.84V59.2H18.77l-1.65-4.1A30.9,30.9,0,0,1,16,51.85h0c0,1.09.13,2.75.13,4.91V59.2Z"/><path class="cls-2" d="M22.55,48.41h2.1v9h2.77V59.2H22.55Z"/><path class="cls-2" d="M30.72,48.41V59.2h-2.1V48.41Z"/><path class="cls-2" d="M34.1,59.2,31.68,48.41H34l.77,4.66c.19,1.15.42,2.48.56,3.75h0c.14-1.28.32-2.58.51-3.79l.74-4.61h2.31L36.45,59.2Z"/><path class="cls-2" d="M44.39,54.46H41.92v2.91h2.79V59.2H39.83V48.41h4.69v1.82H41.92v2.48h2.46Z"/></svg>
